<svg id="visual" viewBox="0 0 900 600" width="900" height="600" xmlns="http://www.w3.org/2000/svg" xmlns:xlink="http://www.w3.org/1999/xlink" version="1.1"><rect x="0" y="0" width="900" height="600" fill="#FFFFFF"></rect><defs><linearGradient id="grad1_0" x1="33.3%" y1="100%" x2="100%" y2="0%"><stop offset="20%" stop-color="#ffffff" stop-opacity="1"></stop><stop offset="80%" stop-color="#ffffff" stop-opacity="1"></stop></linearGradient></defs><defs><linearGradient id="grad2_0" x1="0%" y1="100%" x2="66.7%" y2="0%"><stop offset="20%" stop-color="#ffffff" stop-opacity="1"></stop><stop offset="80%" stop-color="#ffffff" stop-opacity="1"></stop></linearGradient></defs><g transform="translate(900, 600)"><path d="M-351.5 0C-344 -36.8 -336.5 -73.6 -317.7 -103.2C-298.8 -132.8 -268.7 -155.3 -245.1 -178.1C-221.5 -200.9 -204.4 -224.2 -184 -253.2C-163.6 -282.2 -139.8 -317 -108.6 -334.3C-77.4 -351.7 -38.7 -351.6 0 -351.5L0 0Z" fill="#164863"></path></g><g transform="translate(0, 0)"><path d="M351.5 0C340.3 33 329.1 66 322.4 104.8C315.7 143.5 313.4 188.1 284.4 206.6C255.4 225.2 199.7 217.7 165.2 227.3C130.6 237 117.3 263.7 93.3 287.2C69.3 310.8 34.7 331.2 0 351.5L0 0Z" fill="#164863"></path></g></svg>