<svg id="visual" viewBox="0 0 900 600" width="900" height="600" xmlns="http://www.w3.org/2000/svg" xmlns:xlink="http://www.w3.org/1999/xlink" version="1.1"><path d="M0 301L21.5 309.3C43 317.7 86 334.3 128.8 336.2C171.7 338 214.3 325 257.2 331.7C300 338.3 343 364.7 385.8 363.3C428.7 362 471.3 333 514.2 336C557 339 600 374 642.8 377C685.7 380 728.3 351 771.2 336.2C814 321.3 857 320.7 878.5 320.3L900 320L900 601L878.5 601C857 601 814 601 771.2 601C728.3 601 685.7 601 642.8 601C600 601 557 601 514.2 601C471.3 601 428.7 601 385.8 601C343 601 300 601 257.2 601C214.3 601 171.7 601 128.8 601C86 601 43 601 21.5 601L0 601Z" fill="#b927fc"></path><path d="M0 417L21.5 415.7C43 414.3 86 411.7 128.8 412.7C171.7 413.7 214.3 418.3 257.2 423.7C300 429 343 435 385.8 432.3C428.7 429.7 471.3 418.3 514.2 410.7C557 403 600 399 642.8 400C685.7 401 728.3 407 771.2 413.5C814 420 857 427 878.5 430.5L900 434L900 601L878.5 601C857 601 814 601 771.2 601C728.3 601 685.7 601 642.8 601C600 601 557 601 514.2 601C471.3 601 428.7 601 385.8 601C343 601 300 601 257.2 601C214.3 601 171.7 601 128.8 601C86 601 43 601 21.5 601L0 601Z" fill="#9c42ff"></path><path d="M0 456L21.5 449C43 442 86 428 128.8 429.3C171.7 430.7 214.3 447.3 257.2 449.5C300 451.7 343 439.3 385.8 442.7C428.7 446 471.3 465 514.2 475.8C557 486.7 600 489.3 642.8 487C685.7 484.7 728.3 477.3 771.2 462.8C814 448.3 857 426.7 878.5 415.8L900 405L900 601L878.5 601C857 601 814 601 771.2 601C728.3 601 685.7 601 642.8 601C600 601 557 601 514.2 601C471.3 601 428.7 601 385.8 601C343 601 300 601 257.2 601C214.3 601 171.7 601 128.8 601C86 601 43 601 21.5 601L0 601Z" fill="#7d51ff"></path><path d="M0 513L21.5 512C43 511 86 509 128.8 504.5C171.7 500 214.3 493 257.2 487.2C300 481.3 343 476.7 385.8 479.8C428.7 483 471.3 494 514.2 502.3C557 510.7 600 516.3 642.8 510.2C685.7 504 728.3 486 771.2 476.2C814 466.3 857 464.7 878.5 463.8L900 463L900 601L878.5 601C857 601 814 601 771.2 601C728.3 601 685.7 601 642.8 601C600 601 557 601 514.2 601C471.3 601 428.7 601 385.8 601C343 601 300 601 257.2 601C214.3 601 171.7 601 128.8 601C86 601 43 601 21.5 601L0 601Z" fill="#5b5cff"></path><path d="M0 530L21.5 534.2C43 538.3 86 546.7 128.8 548C171.7 549.3 214.3 543.7 257.2 540C300 536.3 343 534.7 385.8 535.8C428.7 537 471.3 541 514.2 544.8C557 548.7 600 552.3 642.8 550.7C685.7 549 728.3 542 771.2 536.2C814 530.3 857 525.7 878.5 523.3L900 521L900 601L878.5 601C857 601 814 601 771.2 601C728.3 601 685.7 601 642.8 601C600 601 557 601 514.2 601C471.3 601 428.7 601 385.8 601C343 601 300 601 257.2 601C214.3 601 171.7 601 128.8 601C86 601 43 601 21.5 601L0 601Z" fill="#2c64fc"></path></svg>